<?xml version="1.0" standalone="no"?><!DOCTYPE svg PUBLIC "-//W3C//DTD SVG 1.1//EN" "http://www.w3.org/Graphics/SVG/1.1/DTD/svg11.dtd">
<svg t="1691462154391" class="icon" viewBox="0 0 1024 1024" version="1.1" xmlns="http://www.w3.org/2000/svg" p-id="2404" width="200" height="200">
  <path d="M512 64C264.6 64 64 264.6 64 512s200.6 448 448 448 448-200.6 448-448S759.4 64 512 64z m0 820c-205.4 0-372-166.6-372-372s166.6-372 372-372 372 166.6 372 372-166.6 372-372 372z" p-id="2405"></path>
  <path d="M512 448c-35.3 0-64 28.7-64 64s28.7 64 64 64 64-28.7 64-64-28.7-64-64-64z" p-id="2406"></path>
  <path d="M426 352h60c4.4 0 8-3.6 8-8v-60c0-4.4-3.6-8-8-8h-60c-4.4 0-8 3.6-8 8v60c0 4.4 3.6 8 8 8z" p-id="2407"></path>
  <path d="M538 352h60c4.4 0 8-3.6 8-8v-60c0-4.4-3.6-8-8-8h-60c-4.4 0-8 3.6-8 8v60c0 4.4 3.6 8 8 8z" p-id="2408"></path>
  <path d="M426 746h60c4.4 0 8-3.6 8-8v-60c0-4.4-3.6-8-8-8h-60c-4.4 0-8 3.6-8 8v60c0 4.4 3.6 8 8 8z" p-id="2409"></path>
  <path d="M538 746h60c4.4 0 8-3.6 8-8v-60c0-4.4-3.6-8-8-8h-60c-4.4 0-8 3.6-8 8v60c0 4.4 3.6 8 8 8z" p-id="2410"></path>
  <path d="M350 648h-60c-4.4 0-8 3.6-8 8v60c0 4.4 3.6 8 8 8h60c4.4 0 8-3.6 8-8v-60c0-4.4-3.6-8-8-8z" p-id="2411"></path>
  <path d="M350 376h-60c-4.4 0-8 3.6-8 8v60c0 4.4 3.6 8 8 8h60c4.4 0 8-3.6 8-8v-60c0-4.4-3.6-8-8-8z" p-id="2412"></path>
  <path d="M734 648h-60c-4.4 0-8 3.6-8 8v60c0 4.4 3.6 8 8 8h60c4.4 0 8-3.6 8-8v-60c0-4.4-3.6-8-8-8z" p-id="2413"></path>
  <path d="M734 376h-60c-4.4 0-8 3.6-8 8v60c0 4.4 3.6 8 8 8h60c4.4 0 8-3.6 8-8v-60c0-4.4-3.6-8-8-8z" p-id="2414"></path>
</svg> 