<?xml version="1.0" standalone="no"?><!DOCTYPE svg PUBLIC "-//W3C//DTD SVG 1.1//EN" "http://www.w3.org/Graphics/SVG/1.1/DTD/svg11.dtd">
<svg t="1745217836037" class="icon" viewBox="0 0 1024 1024" version="1.1" xmlns="http://www.w3.org/2000/svg" p-id="8634" width="200" height="200" xmlns:xlink="http://www.w3.org/1999/xlink">
  <path d="M589.44 128.512c211.456 27.264 370.56 208.64 370.56 420.736a425.514667 425.514667 0 0 1-710.314667 315.690667 424.106667 424.106667 0 0 1-137.685333-272.682667 30.848 30.848 0 0 1 27.264-32.981333 30.848 30.848 0 0 1 32.981333 27.306666c1.450667 19.328 5.034667 37.248 10.026667 55.850667 53.76-9.984 90.282667 23.68 113.92 45.866667 23.68 22.997333 28.032 23.68 33.024 20.821333 71.68-38.016 148.352-14.336 199.978667 60.928 21.546667 30.848 35.157333 79.573333-2.858667 143.36 2.858667 0 5.76 0.682667 8.576 0.682667a366.506667 366.506667 0 0 0 169.216-41.557334 87.850667 87.850667 0 0 1-34.432-45.141333c-15.744-46.592 5.76-106.794667 63.829333-179.882667 5.717333-6.485333 6.4-10.069333 6.4-11.52-0.64-7.893333-24.32-25.813333-40.149333-37.248-44.416-32.981333-111.786667-82.432-101.76-177.066666 6.4-65.28 40.106667-141.226667 149.76-166.314667a366.592 366.592 0 0 0-166.272-65.92 31.018667 31.018667 0 0 1-25.770667-34.432 30.464 30.464 0 0 1 33.706667-26.496z" p-id="8635"></path>
  <path d="M203.776 702.634667a364.288 364.288 0 0 0 254.464 204.288c48.768-60.928 29.44-89.6 21.504-101.034667-19.328-28.672-61.610667-73.088-121.856-41.6-45.184 23.68-79.530667-8.576-102.528-30.08-20.053333-18.602667-34.389333-30.848-51.584-31.573333z" p-id="8636"></path>
  <path d="M808.064 307.712c-121.856 7.168-143.36 70.997333-149.12 119.68-6.4 60.245333 35.84 91.093333 77.44 121.856 30.762667 22.997333 60.16 44.501333 64.512 78.165333 2.816 19.370667-3.584 39.424-18.688 58.026667-42.24 52.352-62.336 98.944-54.4 123.306667 3.498667 11.477333 15.744 20.053333 35.84 25.813333a370.688 370.688 0 0 0 136.832-284.544 363.52 363.52 0 0 0-92.416-242.304z" p-id="8637"></path>
  <path d="M291.968 64a228.48 228.48 0 0 1 227.882667 227.968c0 82.432-68.053333 184.192-207.146667 311.04a29.866667 29.866667 0 0 1-40.832 0C132.096 476.16 64 374.4 64 291.968A228.48 228.48 0 0 1 291.968 64z m0 60.928a167.168 167.168 0 0 0-167.04 167.04c0 41.6 29.44 118.272 167.04 247.296 137.6-129.792 167.04-205.738667 167.04-247.296a166.698667 166.698667 0 0 0-167.04-167.04z m0 91.008c41.6 0 75.946667 33.706667 75.946667 76.032 0 41.6-34.389333 75.946667-75.946667 75.946667-41.6 0-76.032-33.706667-76.032-75.946667 0-41.6 34.432-76.032 76.032-76.032z" p-id="8638"></path>
</svg>