<?xml version="1.0" standalone="no"?><!DOCTYPE svg PUBLIC "-//W3C//DTD SVG 1.1//EN" "http://www.w3.org/Graphics/SVG/1.1/DTD/svg11.dtd"><svg t="1742185883431" class="icon" viewBox="0 0 1027 1024" version="1.1" xmlns="http://www.w3.org/2000/svg" p-id="4322" xmlns:xlink="http://www.w3.org/1999/xlink" width="200.5859375" height="200"><path d="M513.457163 339.42343a53.877817 53.877817 0 0 1 57.039807 57.039807v228.159226a57.039807 57.039807 0 1 1-114.079614 0v-228.159226a53.877817 53.877817 0 0 1 57.039807-57.039807z" fill="#1296db" p-id="4323"></path><path d="M570.49697 795.741883a57.039807 57.039807 0 1 1-57.039807-57.039806 57.039807 57.039807 0 0 1 57.039807 57.039806z" fill="#1296db" p-id="4324"></path><path d="M28.618806 293.791584l456.318454-285.199033a61.565791 61.565791 0 0 1 62.743787 0l456.318454 285.199033a59.271799 59.271799 0 0 1 22.815923 45.631846v627.437874a53.877817 53.877817 0 0 1-57.039807 57.039806h-228.159227a57.039807 57.039807 0 1 1 0-114.079613h171.11942v-536.298183l-399.278647-251.099149-399.278647 251.099149v536.298183H285.297936a57.039807 57.039807 0 1 1 0 114.079613H57.138709A53.877817 53.877817 0 0 1 0.098903 966.861304v-627.437874a50.808828 50.808828 0 0 1 28.519903-45.631846z" fill="#1296db" p-id="4325"></path></svg>